<svg width="64" height="64" viewBox="0 0 64 64" fill="none" xmlns="http://www.w3.org/2000/svg">
<g clip-path="url(#clip0_46_10)">
<rect width="64" height="64" rx="6.4" fill="#550D77"/>
<circle cx="32.0008" cy="32" r="26.4" stroke="#3A114D" stroke-width="1.6"/>
<mask id="mask0_46_10" style="mask-type:alpha" maskUnits="userSpaceOnUse" x="0" y="0" width="64" height="64">
<path d="M64 0L0 64H64V0Z" fill="#D9D9D9"/>
</mask>
<g mask="url(#mask0_46_10)">
<rect width="64" height="64" rx="6.4" fill="#831012"/>
<circle cx="32.0008" cy="32" r="26.4" stroke="#580809" stroke-width="1.6"/>
</g>
<circle cx="32.0004" cy="32" r="25.6" fill="#C9C9C9"/>
<circle cx="32.0004" cy="32" r="25.6" fill="#C9C9C9"/>
<circle cx="7.6818" cy="7.68009" r="3.84" fill="#848484"/>
<circle cx="7.04117" cy="7.04007" r="3.84" fill="#9B9B9B"/>
<circle cx="56.3205" cy="7.68009" r="3.84" fill="#848484"/>
<circle cx="56.9611" cy="7.04007" r="3.84" fill="#9B9B9B"/>
<circle cx="56.3205" cy="56.32" r="3.84" fill="#848484"/>
<circle cx="56.9611" cy="56.96" r="3.84" fill="#9B9B9B"/>
<circle cx="7.6818" cy="55.9999" r="3.84" fill="#848484"/>
<circle cx="7.04117" cy="56.9599" r="3.84" fill="#9B9B9B"/>
<circle cx="32.0002" cy="32" r="3.84" fill="#797979"/>
<path d="M32.3805 29.5622C32.645 29.4793 32.9329 29.5761 33.0936 29.8021L34.3836 31.6165C34.5443 31.8425 34.5412 32.1462 34.3759 32.3689L33.0489 34.1565C32.8836 34.3791 32.5938 34.47 32.331 34.3816L30.2208 33.672C29.958 33.5836 29.782 33.336 29.7849 33.0588L29.8077 30.8326C29.8106 30.5553 29.9916 30.3114 30.2562 30.2285L32.3805 29.5622Z" fill="#999797"/>
<path d="M14.5386 36.2819C14.4903 36.3301 14.442 36.3301 14.3938 36.2819L10.6778 32.5659C10.6295 32.5176 10.6295 32.4693 10.6778 32.4211L12.4214 30.6775C12.4658 30.6331 12.5198 30.6099 12.5836 30.608L13.7421 30.608C13.8058 30.6099 13.8599 30.6331 13.9043 30.6775L14.5125 31.2857C14.5318 31.305 14.5434 31.3243 14.5473 31.3436C14.5511 31.363 14.553 31.3881 14.553 31.419L14.5038 32.2792L14.5675 32.4298L14.6892 32.4645L15.5494 32.4153C15.5803 32.4153 15.6054 32.4172 15.6247 32.4211C15.6421 32.423 15.6614 32.4346 15.6826 32.4558L16.2792 33.0525C16.3256 33.0988 16.3488 33.1529 16.3488 33.2147L16.3488 34.3732C16.3488 34.4388 16.3266 34.4939 16.2821 34.5383L14.5386 36.2819ZM15.0396 34.4775C15.1999 34.3172 15.2771 34.1762 15.2713 34.0546C15.2675 33.931 15.1767 33.7804 14.9991 33.6028C14.8195 33.4232 14.6679 33.3315 14.5444 33.3276C14.4227 33.3218 14.2818 33.3991 14.1215 33.5593C13.9632 33.7177 13.8859 33.8586 13.8898 33.9822C13.8956 34.1038 13.9883 34.2544 14.1678 34.434C14.3455 34.6117 14.4951 34.7034 14.6168 34.7092C14.7403 34.713 14.8813 34.6358 15.0396 34.4775ZM13.3974 32.8352C13.5577 32.675 13.6349 32.534 13.6291 32.4124C13.6253 32.2888 13.5345 32.1382 13.3569 31.9606C13.1792 31.7829 13.0286 31.6922 12.905 31.6883C12.7834 31.6825 12.6424 31.7598 12.4822 31.92C12.3239 32.0783 12.2466 32.2193 12.2505 32.3429C12.2563 32.4645 12.348 32.6142 12.5256 32.7918C12.7033 32.9694 12.8529 33.0612 12.9746 33.067C13.0981 33.0708 13.2391 32.9936 13.3974 32.8352ZM17.7848 33.0356C17.7365 33.0839 17.6882 33.0839 17.64 33.0356L14.9551 30.3508C14.93 30.3257 14.9107 30.287 14.8972 30.2349L14.6104 28.5753C14.6027 28.5251 14.6191 28.4797 14.6597 28.4392L15.6183 27.4805C15.6608 27.438 15.7062 27.4216 15.7545 27.4313L17.417 27.7151C17.4633 27.7228 17.5019 27.7421 17.5328 27.773L20.2177 30.4579C20.266 30.5062 20.266 30.5545 20.2177 30.6027L19.398 31.4224C19.3498 31.4707 19.3015 31.4707 19.2532 31.4224L18.0223 30.1915L17.3764 30.8373L18.6073 32.0683C18.6556 32.1165 18.6556 32.1648 18.6073 32.2131L17.7848 33.0356ZM17.0752 29.8931C17.2528 29.7155 17.3339 29.5572 17.3185 29.4181C17.303 29.2753 17.1853 29.0938 16.9651 28.8736C16.745 28.6535 16.5645 28.5367 16.4235 28.5232C16.2826 28.5058 16.1233 28.5859 15.9456 28.7636C15.7699 28.9393 15.6898 29.0986 15.7052 29.2415C15.7207 29.3805 15.8385 29.5601 16.0586 29.7802C16.2787 30.0003 16.4592 30.1191 16.6002 30.1364C16.7411 30.1499 16.8995 30.0688 17.0752 29.8931ZM22.0632 28.7572C22.0188 28.8017 21.9676 28.8277 21.9097 28.8354L21.006 28.876L19.9054 28.7312C19.8572 28.7254 19.8272 28.7225 19.8156 28.7225C19.8021 28.7206 19.7819 28.7061 19.7548 28.679L18.2777 27.2019C18.2507 27.1749 18.2362 27.1546 18.2343 27.1411C18.2343 27.1257 18.2314 27.0957 18.2256 27.0513L18.0952 26.0347L18.1242 25.05C18.1281 25.0114 18.1339 24.9843 18.1416 24.9689C18.1512 24.9515 18.1715 24.9274 18.2024 24.8965L18.9178 24.1811C18.9661 24.1328 19.0143 24.1328 19.0626 24.1811L19.526 24.6445C19.5415 24.6599 19.5559 24.6783 19.5695 24.6995C19.583 24.7169 19.5868 24.7401 19.581 24.769L19.4102 25.6872L19.5115 26.501L20.4586 27.4481L21.2783 27.5437L22.1877 27.3757C22.2128 27.3699 22.2341 27.3718 22.2514 27.3815C22.2688 27.3912 22.2852 27.4037 22.3007 27.4191L22.7786 27.897C22.8268 27.9453 22.8268 27.9936 22.7786 28.0419L22.0632 28.7572ZM23.4845 27.3359C23.4363 27.3842 23.388 27.3842 23.3397 27.3359L19.6238 23.6199C19.5755 23.5716 19.5755 23.5234 19.6238 23.4751L20.4434 22.6554C20.4917 22.6072 20.54 22.6072 20.5882 22.6554L22.1233 24.1905L22.4824 23.8313L21.9524 22.919L21.2776 21.8966C21.2698 21.8812 21.2698 21.8638 21.2776 21.8445C21.2853 21.8213 21.3036 21.7952 21.3326 21.7663L22.1667 20.9321C22.215 20.8839 22.2633 20.8839 22.3115 20.9321L22.6736 21.2942C22.6948 21.3154 22.7132 21.3396 22.7286 21.3666C22.7421 21.3917 22.7547 21.4139 22.7663 21.4332L23.2615 22.6352L23.4787 23.3448L24.1883 23.5504L25.5815 24.092C25.6027 24.0978 25.623 24.1065 25.6423 24.1181C25.6616 24.1297 25.6857 24.1499 25.7147 24.1789L26.1057 24.5699C26.154 24.6182 26.154 24.6664 26.1057 24.7147L25.2426 25.5778C25.2291 25.5913 25.2098 25.6068 25.1847 25.6242C25.1596 25.6377 25.1354 25.6367 25.1123 25.6213L23.9798 24.9175L23.2963 24.5525L22.8908 24.958L24.3042 26.3714C24.3525 26.4197 24.3525 26.468 24.3042 26.5162L23.4845 27.3359ZM27.4997 23.3207C27.4533 23.3671 27.3983 23.3893 27.3346 23.3873L26.1761 23.3873C26.1124 23.3893 26.0573 23.3671 26.011 23.3207L22.967 20.2767C22.9187 20.2284 22.9187 20.1802 22.967 20.1319L23.7866 19.3122C23.8349 19.264 23.8832 19.264 23.9314 19.3122L26.8886 22.2694C26.9272 22.308 26.9658 22.308 27.0044 22.2694L27.4794 21.7944L24.4644 18.7793C24.4161 18.731 24.4161 18.6828 24.4644 18.6345L25.284 17.8149C25.3323 17.7666 25.3806 17.7666 25.4288 17.8149L29.1448 21.5308C29.1931 21.5791 29.1931 21.6274 29.1448 21.6756L27.4997 23.3207ZM29.9843 20.8362C29.936 20.8844 29.8877 20.8844 29.8395 20.8362L26.1235 17.1202C26.0752 17.0719 26.0752 17.0236 26.1235 16.9754L27.7251 15.3737C27.7715 15.3274 27.8256 15.3042 27.8873 15.3042L29.0459 15.3042C29.1115 15.3042 29.1665 15.3264 29.211 15.3708L30.2102 16.37C30.2565 16.4164 30.2787 16.4714 30.2768 16.5351L30.2768 17.6937C30.2787 17.7574 30.2565 17.8124 30.2102 17.8587L29.5006 18.5683L30.8039 19.8717C30.8522 19.92 30.8522 19.9682 30.8039 20.0165L29.9843 20.8362ZM28.93 17.5633C29.0903 17.4031 29.1675 17.2621 29.1617 17.1405C29.1579 17.0169 29.0671 16.8663 28.8895 16.6886C28.7118 16.511 28.5612 16.4202 28.4376 16.4164C28.316 16.4106 28.175 16.4878 28.0148 16.6481C27.8564 16.8064 27.7792 16.9474 27.7831 17.071C27.7889 17.1926 27.8806 17.3422 28.0582 17.5199C28.2359 17.6975 28.3855 17.7892 28.5071 17.795C28.6307 17.7989 28.7717 17.7217 28.93 17.5633ZM32.8693 17.9512C32.821 17.9994 32.7727 17.9994 32.7244 17.9512L29.0085 14.2352C28.9602 14.1869 28.9602 14.1386 29.0085 14.0904L31.0272 12.0716C31.0755 12.0234 31.1238 12.0234 31.172 12.0716L31.7976 12.6973C31.8459 12.7455 31.8459 12.7938 31.7976 12.8421L30.671 13.9687L31.4935 14.7913L32.5217 13.7631C32.57 13.7148 32.6183 13.7148 32.6665 13.7631L33.1965 14.2931C33.2448 14.3414 33.2448 14.3897 33.1965 14.4379L32.1684 15.4661L32.988 16.2858L34.1147 15.1591C34.1629 15.1108 34.2112 15.1108 34.2595 15.1591L34.888 15.7876C34.9363 15.8359 34.9363 15.8842 34.888 15.9324L32.8693 17.9512ZM35.726 15.0944C35.6777 15.1427 35.6294 15.1427 35.5812 15.0944L31.8652 11.3785C31.8169 11.3302 31.8169 11.2819 31.8652 11.2337L33.435 9.66387C33.4813 9.61753 33.5325 9.59146 33.5885 9.58567L34.915 9.57987C34.9556 9.57794 34.9845 9.5818 35.0019 9.59146C35.0212 9.59918 35.0463 9.61849 35.0772 9.64939L35.8708 10.443C35.8959 10.4681 35.9084 10.4999 35.9084 10.5386L35.8998 11.1671L35.8621 11.6681L36.6036 11.7724L37.6317 12.146C37.6568 12.1557 37.68 12.1672 37.7013 12.1808C37.7225 12.1904 37.7447 12.2068 37.7679 12.23L38.1067 12.5689C38.155 12.6171 38.155 12.6654 38.1067 12.7137L37.3421 13.4783C37.2996 13.5208 37.2514 13.5304 37.1973 13.5073L35.3755 12.6181L35.1583 12.8353L36.4993 14.1763C36.5476 14.2246 36.5476 14.2729 36.4993 14.3211L35.726 15.0944ZM34.7673 11.8071C34.9276 11.6469 35.0038 11.505 34.9961 11.3814C34.9865 11.2559 34.8899 11.1014 34.7065 10.918C34.5211 10.7326 34.3666 10.6361 34.2431 10.6283C34.1176 10.6187 33.9747 10.694 33.8144 10.8543C33.6561 11.0126 33.5808 11.1555 33.5885 11.2829C33.5943 11.4084 33.6899 11.5638 33.8752 11.7492C34.0587 11.9326 34.2141 12.0282 34.3415 12.0359C34.467 12.0417 34.609 11.9655 34.7673 11.8071Z" fill="#B5B6B3"/>
<path d="M13.8979 36.2819C13.8497 36.3301 13.8014 36.3301 13.7531 36.2819L10.0372 32.5659C9.98889 32.5176 9.98889 32.4693 10.0372 32.4211L11.7807 30.6775C11.8251 30.6331 11.8792 30.6099 11.9429 30.608L13.1015 30.608C13.1652 30.6099 13.2192 30.6331 13.2636 30.6775L13.8719 31.2857C13.8912 31.305 13.9028 31.3243 13.9066 31.3436C13.9105 31.363 13.9124 31.3881 13.9124 31.419L13.8632 32.2792L13.9269 32.4298L14.0485 32.4645L14.9088 32.4153C14.9396 32.4153 14.9647 32.4172 14.9841 32.4211C15.0014 32.423 15.0207 32.4346 15.042 32.4558L15.6386 33.0525C15.685 33.0988 15.7081 33.1529 15.7081 33.2147L15.7081 34.3732C15.7081 34.4388 15.6859 34.4939 15.6415 34.5383L13.8979 36.2819ZM14.399 34.4775C14.5593 34.3172 14.6365 34.1762 14.6307 34.0546C14.6268 33.931 14.5361 33.7804 14.3585 33.6028C14.1789 33.4232 14.0273 33.3315 13.9037 33.3276C13.7821 33.3218 13.6411 33.3991 13.4809 33.5593C13.3225 33.7177 13.2453 33.8586 13.2492 33.9822C13.255 34.1038 13.3476 34.2544 13.5272 34.434C13.7049 34.6117 13.8545 34.7034 13.9761 34.7092C14.0997 34.713 14.2407 34.6358 14.399 34.4775ZM12.7568 32.8352C12.9171 32.675 12.9943 32.534 12.9885 32.4124C12.9846 32.2888 12.8939 32.1382 12.7162 31.9606C12.5386 31.7829 12.388 31.6922 12.2644 31.6883C12.1428 31.6825 12.0018 31.7598 11.8416 31.92C11.6832 32.0783 11.606 32.2193 11.6099 32.3429C11.6156 32.4645 11.7074 32.6142 11.885 32.7918C12.0626 32.9694 12.2123 33.0612 12.3339 33.067C12.4575 33.0708 12.5985 32.9936 12.7568 32.8352ZM17.1442 33.0356C17.0959 33.0839 17.0476 33.0839 16.9993 33.0356L14.3145 30.3508C14.2894 30.3257 14.2701 30.287 14.2565 30.2349L13.9698 28.5753C13.9621 28.5251 13.9785 28.4797 14.019 28.4392L14.9777 27.4805C15.0202 27.438 15.0656 27.4216 15.1138 27.4313L16.7763 27.7151C16.8227 27.7228 16.8613 27.7421 16.8922 27.773L19.5771 30.4579C19.6253 30.5062 19.6253 30.5545 19.5771 30.6027L18.7574 31.4224C18.7091 31.4707 18.6609 31.4707 18.6126 31.4224L17.3817 30.1915L16.7358 30.8373L17.9667 32.0683C18.015 32.1165 18.015 32.1648 17.9667 32.2131L17.1442 33.0356ZM16.4346 29.8931C16.6122 29.7155 16.6933 29.5572 16.6779 29.4181C16.6624 29.2753 16.5446 29.0938 16.3245 28.8736C16.1044 28.6535 15.9238 28.5367 15.7829 28.5232C15.6419 28.5058 15.4826 28.5859 15.305 28.7636C15.1293 28.9393 15.0492 29.0986 15.0646 29.2415C15.0801 29.3805 15.1978 29.5601 15.418 29.7802C15.6381 30.0003 15.8186 30.1191 15.9596 30.1364C16.1005 30.1499 16.2589 30.0688 16.4346 29.8931ZM21.4226 28.7572C21.3781 28.8017 21.327 28.8277 21.269 28.8354L20.3654 28.876L19.2648 28.7312C19.2165 28.7254 19.1866 28.7225 19.175 28.7225C19.1615 28.7206 19.1412 28.7061 19.1142 28.679L17.6371 27.2019C17.61 27.1749 17.5956 27.1546 17.5936 27.1411C17.5936 27.1257 17.5907 27.0957 17.5849 27.0513L17.4546 26.0347L17.4836 25.05C17.4874 25.0114 17.4932 24.9843 17.501 24.9689C17.5106 24.9515 17.5309 24.9274 17.5618 24.8965L18.2772 24.1811C18.3254 24.1328 18.3737 24.1328 18.422 24.1811L18.8854 24.6445C18.9008 24.6599 18.9153 24.6783 18.9288 24.6995C18.9423 24.7169 18.9462 24.7401 18.9404 24.769L18.7695 25.6872L18.8709 26.501L19.818 27.4481L20.6377 27.5437L21.5471 27.3757C21.5722 27.3699 21.5934 27.3718 21.6108 27.3815C21.6282 27.3912 21.6446 27.4037 21.6601 27.4191L22.1379 27.897C22.1862 27.9453 22.1862 27.9936 22.1379 28.0419L21.4226 28.7572ZM22.8439 27.3359C22.7956 27.3842 22.7474 27.3842 22.6991 27.3359L18.9831 23.6199C18.9349 23.5716 18.9349 23.5234 18.9831 23.4751L19.8028 22.6554C19.8511 22.6072 19.8993 22.6072 19.9476 22.6554L21.4827 24.1905L21.8418 23.8313L21.3118 22.919L20.6369 21.8966C20.6292 21.8812 20.6292 21.8638 20.6369 21.8445C20.6447 21.8213 20.663 21.7952 20.692 21.7663L21.5261 20.9321C21.5744 20.8839 21.6226 20.8839 21.6709 20.9321L22.033 21.2942C22.0542 21.3154 22.0725 21.3396 22.088 21.3666C22.1015 21.3917 22.114 21.4139 22.1256 21.4332L22.6209 22.6352L22.8381 23.3448L23.5477 23.5504L24.9408 24.092C24.9621 24.0978 24.9824 24.1065 25.0017 24.1181C25.021 24.1297 25.0451 24.1499 25.0741 24.1789L25.4651 24.5699C25.5133 24.6182 25.5133 24.6664 25.4651 24.7147L24.602 25.5778C24.5885 25.5913 24.5692 25.6068 24.5441 25.6242C24.5189 25.6377 24.4948 25.6367 24.4716 25.6213L23.3392 24.9175L22.6557 24.5525L22.2502 24.958L23.6636 26.3714C23.7118 26.4197 23.7118 26.468 23.6636 26.5162L22.8439 27.3359ZM26.8591 23.3207C26.8127 23.3671 26.7577 23.3893 26.694 23.3873L25.5354 23.3873C25.4717 23.3893 25.4167 23.3671 25.3704 23.3207L22.3263 20.2767C22.2781 20.2284 22.2781 20.1802 22.3263 20.1319L23.146 19.3122C23.1943 19.264 23.2425 19.264 23.2908 19.3122L26.2479 22.2694C26.2866 22.308 26.3252 22.308 26.3638 22.2694L26.8388 21.7944L23.8237 18.7793C23.7755 18.731 23.7755 18.6828 23.8237 18.6345L24.6434 17.8149C24.6917 17.7666 24.7399 17.7666 24.7882 17.8149L28.5042 21.5308C28.5524 21.5791 28.5524 21.6274 28.5042 21.6756L26.8591 23.3207ZM29.3436 20.8362C29.2954 20.8844 29.2471 20.8844 29.1988 20.8362L25.4829 17.1202C25.4346 17.0719 25.4346 17.0236 25.4829 16.9754L27.0845 15.3737C27.1309 15.3274 27.1849 15.3042 27.2467 15.3042L28.4052 15.3042C28.4709 15.3042 28.5259 15.3264 28.5703 15.3708L29.5696 16.37C29.6159 16.4164 29.6381 16.4714 29.6362 16.5351L29.6362 17.6937C29.6381 17.7574 29.6159 17.8124 29.5696 17.8587L28.86 18.5683L30.1633 19.8717C30.2116 19.92 30.2116 19.9682 30.1633 20.0165L29.3436 20.8362ZM28.2894 17.5633C28.4496 17.4031 28.5269 17.2621 28.5211 17.1405C28.5172 17.0169 28.4265 16.8663 28.2488 16.6886C28.0712 16.511 27.9206 16.4202 27.797 16.4164C27.6754 16.4106 27.5344 16.4878 27.3742 16.6481C27.2158 16.8064 27.1386 16.9474 27.1424 17.071C27.1482 17.1926 27.24 17.3422 27.4176 17.5199C27.5952 17.6975 27.7449 17.7892 27.8665 17.795C27.9901 17.7989 28.1311 17.7217 28.2894 17.5633ZM32.2286 17.9512C32.1804 17.9994 32.1321 17.9994 32.0838 17.9512L28.3679 14.2352C28.3196 14.1869 28.3196 14.1386 28.3679 14.0904L30.3866 12.0716C30.4349 12.0234 30.4831 12.0234 30.5314 12.0716L31.157 12.6973C31.2053 12.7455 31.2053 12.7938 31.157 12.8421L30.0303 13.9687L30.8529 14.7913L31.8811 13.7631C31.9294 13.7148 31.9776 13.7148 32.0259 13.7631L32.5559 14.2931C32.6042 14.3414 32.6042 14.3897 32.5559 14.4379L31.5277 15.4661L32.3474 16.2858L33.4741 15.1591C33.5223 15.1108 33.5706 15.1108 33.6189 15.1591L34.2474 15.7876C34.2956 15.8359 34.2956 15.8842 34.2474 15.9324L32.2286 17.9512ZM35.0853 15.0944C35.0371 15.1427 34.9888 15.1427 34.9405 15.0944L31.2246 11.3785C31.1763 11.3302 31.1763 11.2819 31.2246 11.2337L32.7944 9.66387C32.8407 9.61753 32.8919 9.59146 32.9479 9.58567L34.2744 9.57987C34.3149 9.57794 34.3439 9.5818 34.3613 9.59146C34.3806 9.59918 34.4057 9.61849 34.4366 9.64939L35.2302 10.443C35.2553 10.4681 35.2678 10.4999 35.2678 10.5386L35.2591 11.1671L35.2215 11.6681L35.9629 11.7724L36.9911 12.146C37.0162 12.1557 37.0394 12.1672 37.0606 12.1808C37.0819 12.1904 37.1041 12.2068 37.1272 12.23L37.4661 12.5689C37.5144 12.6171 37.5144 12.6654 37.4661 12.7137L36.7015 13.4783C36.659 13.5208 36.6107 13.5304 36.5567 13.5073L34.7349 12.6181L34.5177 12.8353L35.8587 14.1763C35.9069 14.2246 35.9069 14.2729 35.8587 14.3211L35.0853 15.0944ZM34.1267 11.8071C34.2869 11.6469 34.3632 11.505 34.3555 11.3814C34.3458 11.2559 34.2493 11.1014 34.0658 10.918C33.8805 10.7326 33.726 10.6361 33.6024 10.6283C33.4769 10.6187 33.334 10.694 33.1738 10.8543C33.0155 11.0126 32.9401 11.1555 32.9479 11.2829C32.9537 11.4084 33.0492 11.5638 33.2346 11.7492C33.418 11.9326 33.5735 12.0282 33.7009 12.0359C33.8264 12.0417 33.9683 11.9655 34.1267 11.8071Z" fill="#3E3E3E"/>
<path d="M43.9629 16.5762C46.2741 18.369 48.153 20.6583 49.4604 23.275C50.7679 25.8916 51.4706 28.7686 51.5165 31.6934C51.5624 34.6181 50.9505 37.5158 49.7259 40.1722C48.5012 42.8287 46.6953 45.1759 44.4414 47.0404C42.1876 48.905 39.5435 50.2391 36.7047 50.9443C33.8659 51.6495 30.9048 51.7076 28.0405 51.1144C25.1762 50.5213 22.4818 49.2919 20.1565 47.5173C17.8312 45.7427 15.9344 43.4682 14.6065 40.8619" stroke="#B5B6B3" stroke-width="3.2"/>
<path d="M45.064 21.5004L43.6459 16.3109L49.0768 17.6385" stroke="#B5B6B3" stroke-width="3.2"/>
<path d="M44.7481 15.5647C47.2109 17.4751 49.2129 19.9146 50.6061 22.7028C51.9993 25.491 52.7481 28.5567 52.797 31.6733C52.846 34.7898 52.1939 37.8775 50.889 40.7081C49.5841 43.5387 47.6597 46.0398 45.258 48.0266C42.8564 50.0134 40.039 51.4351 37.014 52.1865C33.989 52.9379 30.8338 52.9999 27.7816 52.3678C24.7295 51.7357 21.8584 50.4258 19.3806 48.5348C16.9028 46.6438 14.8817 44.2202 13.4667 41.443" stroke="#3E3E3E" stroke-width="3.2"/>
<path d="M45.8557 20.8639L44.3517 15.3599L50.1117 16.7679" stroke="#3E3E3E" stroke-width="3.2"/>
<path d="M43.9361 31.52L5.66406 52.736L9.24806 59.52L29.9521 44.32L43.9361 31.52Z" fill="#848484"/>
<path d="M43.2954 32.48L5.02344 53.696L9.24744 60.096L29.3114 45.28L43.2954 32.48Z" fill="#9B9B9B"/>
<path d="M43.295 32.48L43.935 31.52L42.207 33.088L43.295 32.48Z" fill="#848484"/>
<path d="M41.2168 33.0241L43.2968 32.4801L44.0328 31.4561L41.2168 33.0241Z" fill="#C9C9C9"/>
<path d="M54.7969 57.6038L59.1242 56.4443" stroke="#797979" stroke-width="0.64"/>
<path d="M54.7969 6.46021L59.1242 7.61971" stroke="#797979" stroke-width="0.64"/>
<path d="M4.87695 7.61975L9.2043 6.46024" stroke="#797979" stroke-width="0.64"/>
</g>
<defs>
<clipPath id="clip0_46_10">
<rect width="64" height="64" fill="white"/>
</clipPath>
</defs>
</svg>
